<?xml version="1.0" encoding="UTF-8"?><svg id="uuid-f6be54d7-d97d-4be8-901b-21d03c826508" xmlns="http://www.w3.org/2000/svg" width="1061.404" height="285.298" viewBox="0 0 1061.404 285.298"><defs><style>.uuid-a8c08a17-2865-46f7-bc4d-ab9bdfd885be{fill-rule:evenodd;}.uuid-a8c08a17-2865-46f7-bc4d-ab9bdfd885be,.uuid-b8b6dfed-15a5-4a66-b896-c82a6df68515{fill:#111111;}</style></defs><polygon class="uuid-a8c08a17-2865-46f7-bc4d-ab9bdfd885be" points="212.099 20.538 280.647 20.538 312.386 87.272 343.8 20.538 408.258 20.538 343.8 133.572 343.8 179.053 280.647 179.053 280.647 133.572 212.099 20.538 212.099 20.538"/><polygon class="uuid-a8c08a17-2865-46f7-bc4d-ab9bdfd885be" points="417.094 20.538 480.08 20.538 480.08 72.115 537.017 20.538 616.199 20.538 555.502 77.714 626.997 179.053 553.703 179.053 506.749 113.802 480.08 137.033 480.08 179.053 417.094 179.053 417.094 20.538 417.094 20.538"/><polygon class="uuid-a8c08a17-2865-46f7-bc4d-ab9bdfd885be" points="844.012 20.538 915.344 20.538 983.077 111.331 983.077 20.538 1041.484 20.538 1041.484 179.053 971.789 179.053 901.438 85.133 901.438 179.053 844.012 179.053 844.012 20.538 844.012 20.538"/><path class="uuid-a8c08a17-2865-46f7-bc4d-ab9bdfd885be" d="M141.007,61.978c-2.936-9.06-15.123-16.31-32.053-16.31-13.316,0-20.765,5.27-21.217,10.874,0,2.636,1.13,5.436,4.062,7.414,2.936,1.979,8.352,2.967,13.545,3.46,3.836.33,13.543,1.647,19.411,2.801,5.868.99,13.542,1.815,18.962,2.64,14.446,2.138,33.404,3.953,44.466,8.07,11.058,3.958,18.281,9.064,23.927,15.325,5.868,6.26,9.026,18.621,9.026,27.681,0,13.017-8.8,27.684-18.507,35.923-9.481,8.236-19.188,11.203-34.762,14.829-15.349,3.296-32.05,4.449-50.108,4.449-17.833,0-41.309-2.142-55.98-6.593-14.672-4.449-21.217-9.06-30.246-17.298-8.8-8.403-11.285-17.631-12.188-28.507h78.778c1.577,6.425,10.155,10.546,12.865,11.368,6.771,1.978,7.9,1.814,15.349,1.814,16.929-.661,23.475-4.285,24.378-10.875,0-4.614-1.807-7.248-8.126-9.555-6.32-2.307-19.64-3.626-34.085-6.43-13.768-2.471-27.988-3.295-37.243-5.599-9.481-2.307-18.959-4.45-26.633-8.239-7.449-3.793-11.965-8.239-16.253-14.17-4.29-6.096-5.642-16.806-5.642-25.706.226-9.061,4.964-21.092,12.639-28.342,7.449-7.414,11.51-10.213,25.955-14.336,14.449-4.116,38.373-5.763,58.238-5.763,11.509,0,23.701.985,33.856,2.636,10.384,1.646,24.604,5.6,33.182,9.557,8.578,4.117,14.672,9.392,20.539,15.981,5.642,6.758,6.546,13.514,8.352,22.903h-74.487Z"/><path class="uuid-a8c08a17-2865-46f7-bc4d-ab9bdfd885be" d="M719.887,10.983c23.394,0,49.978,4.285,66.142,11.863,16.164,7.746,24.032,16.15,31.901,28.673,7.869,12.522,9.358,27.186,9.785,41.521,0,11.7-1.489,27.849-6.168,38.226-4.679,10.382-10.846,18.949-19.777,26.86-9.146,7.91-15.313,10.216-28.711,14.827-13.402,4.286-35.518,6.1-52.532,6.1-25.095-.168-49.978-2.967-66.142-10.878-15.952-8.402-25.31-17.628-32.54-30.48-7.229-13.017-8.933-29.494-8.933-44.159.214-11.206,1.915-25.045,6.382-34.766,4.464-9.725,9.57-16.81,18.289-24.552,8.935-7.578,16.164-11.7,29.562-16.15,13.397-4.446,35.306-6.917,52.743-7.085h0ZM720.738,49.212c-7.442,0-16.376,1.812-22.332,5.108-5.741,3.297-11.696,8.567-14.887,15.323-3.189,6.59-5.529,15.325-5.529,24.882.427,14.499,3.828,25.537,10.635,33.116,6.591,7.746,19.991,12.525,32.112,12.525,13.186-.165,27.011-5.932,32.967-13.841,5.952-8.073,8.719-17.797,8.93-30.153,0-13.674-2.55-23.563-8.93-32.131-6.168-8.566-19.569-14.829-32.967-14.829h0Z"/><path class="uuid-b8b6dfed-15a5-4a66-b896-c82a6df68515" d="M18.383,217.981h21.117c10.828,0,18.229,6.044,18.229,16.181,0,10.836-7.803,16.582-18.676,16.582h-13.239v22.852h-7.43v-55.616ZM25.813,244.54h12.879c7.614,0,11.429-3.721,11.429-10.189,0-6.777-4.617-10.166-11.137-10.166h-13.171v20.355Z"/><path class="uuid-b8b6dfed-15a5-4a66-b896-c82a6df68515" d="M137.836,249.1v24.497h-7.316v-55.616h21.735c11.429,0,17.519,6.199,17.519,14.878,0,7.227-4.153,11.61-9.481,13.082,4.537,1.217,8.49,4.606,8.49,14.259v2.386c0,3.833-.178,8.682.745,11.011h-7.167c-1.014-2.398-.945-6.734-.945-11.953v-1.183c0-7.92-2.234-11.36-12.208-11.36h-11.372ZM137.836,242.896h12.094c8.502,0,12.237-3.197,12.237-9.447,0-5.912-3.856-9.264-11.406-9.264h-12.924v18.711Z"/><path class="uuid-b8b6dfed-15a5-4a66-b896-c82a6df68515" d="M292.842,245.474c0,15.296-8.582,28.922-26.101,28.922-16.367,0-25.505-12.652-25.505-28.607s9.327-28.607,26.152-28.607c15.657,0,25.453,11.759,25.453,28.292ZM248.959,245.548c0,12.022,6.153,22.557,18.109,22.557,12.913,0,18.052-10.641,18.052-22.523,0-11.982-5.826-22.111-18.035-22.111-12.604,0-18.126,10.212-18.126,22.076Z"/><path class="uuid-b8b6dfed-15a5-4a66-b896-c82a6df68515" d="M366.699,217.981h21.117c10.828,0,18.229,6.044,18.229,16.181,0,10.836-7.803,16.582-18.676,16.582h-13.239v22.852h-7.43v-55.616ZM374.129,244.54h12.879c7.614,0,11.429-3.721,11.429-10.189,0-6.777-4.617-10.166-11.137-10.166h-13.171v20.355Z"/><path class="uuid-b8b6dfed-15a5-4a66-b896-c82a6df68515" d="M513.73,247.599h-27.659v19.679h30.375l-.951,6.319h-36.659v-55.616h36.218v6.319h-28.982v16.98h27.659v6.319Z"/><path class="uuid-b8b6dfed-15a5-4a66-b896-c82a6df68515" d="M596.129,249.1v24.497h-7.316v-55.616h21.735c11.429,0,17.519,6.199,17.519,14.878,0,7.227-4.153,11.61-9.481,13.082,4.537,1.217,8.49,4.606,8.49,14.259v2.386c0,3.833-.178,8.682.745,11.011h-7.167c-1.014-2.398-.945-6.734-.945-11.953v-1.183c0-7.92-2.234-11.36-12.208-11.36h-11.372ZM596.129,242.896h12.094c8.502,0,12.237-3.197,12.237-9.447,0-5.912-3.856-9.264-11.406-9.264h-12.924v18.711Z"/><path class="uuid-b8b6dfed-15a5-4a66-b896-c82a6df68515" d="M714.533,224.3h-17.966v-6.319h43.379v6.319h-17.989v49.297h-7.425v-49.297Z"/><path class="uuid-b8b6dfed-15a5-4a66-b896-c82a6df68515" d="M817.59,217.981v55.616h-7.379v-55.616h7.379Z"/><path class="uuid-b8b6dfed-15a5-4a66-b896-c82a6df68515" d="M929.91,247.599h-27.659v19.679h30.375l-.951,6.319h-36.659v-55.616h36.218v6.319h-28.982v16.98h27.659v6.319Z"/><path class="uuid-b8b6dfed-15a5-4a66-b896-c82a6df68515" d="M1009.118,258.117c1.507,6.668,6.067,10.272,14.127,10.272,8.674,0,12.111-4.068,12.111-9.324,0-5.577-2.738-8.702-13.893-11.4-13.102-3.182-17.651-7.671-17.651-15.491,0-8.258,6.09-14.992,18.504-14.992,13.245,0,18.693,7.657,19.444,14.961h-7.505c-.997-4.95-4.09-9.012-12.208-9.012-6.772,0-10.57,3.051-10.57,8.35,0,5.222,3.139,7.281,12.884,9.642,15.858,3.858,18.659,10.031,18.659,17.172,0,8.969-6.645,15.998-20.246,15.998-13.99,0-20.011-7.645-21.162-16.175h7.505Z"/></svg>
